<svg viewBox="0 0 96 81" version="1.1" 
  xmlns="http://www.w3.org/2000/svg" 
  xmlns:xlink="http://www.w3.org/1999/xlink" width="96" height="81" style="fill: #ffffff; fill-rule:nonzero;">
  <g>
    <path d="M59.355,32.789c0,1.778 1.447,3.223 3.224,3.223c1.78,0 3.226,-1.445 3.226,-3.223c0,-1.777 -1.446,-3.227 -3.226,-3.227c-1.777,0 -3.224,1.45 -3.224,3.227Zm1.761,0c0,-0.808 0.656,-1.466 1.463,-1.466c0.809,0 1.466,0.658 1.466,1.466c0,0.807 -0.657,1.467 -1.466,1.467c-0.807,0 -1.463,-0.66 -1.463,-1.467Z"/>
    <path d="M22.701,32.789c0,1.778 1.449,3.223 3.228,3.223c1.776,0 3.221,-1.445 3.221,-3.223c0,-1.777 -1.445,-3.227 -3.221,-3.227c-1.779,0 -3.228,1.45 -3.228,3.227Zm1.759,0c0,-0.808 0.657,-1.466 1.469,-1.466c0.806,0 1.463,0.658 1.463,1.466c0,0.807 -0.657,1.467 -1.463,1.467c-0.812,0 -1.469,-0.66 -1.469,-1.467Z"/>
    <path d="M44.693,32.789c0,1.778 1.445,3.223 3.224,3.223c1.78,0 3.229,-1.445 3.229,-3.223c0,-1.777 -1.449,-3.227 -3.229,-3.227c-1.779,0 -3.224,1.45 -3.224,3.227Zm1.757,0c0,-0.808 0.659,-1.466 1.467,-1.466c0.811,0 1.469,0.658 1.469,1.466c0,0.807 -0.658,1.467 -1.469,1.467c-0.808,0 -1.467,-0.66 -1.467,-1.467Z"/>
    <path d="M52.026,32.789c0,1.778 1.446,3.223 3.225,3.223c1.78,0 3.225,-1.445 3.225,-3.223c0,-1.777 -1.445,-3.227 -3.225,-3.227c-1.779,0 -3.225,1.45 -3.225,3.227Zm1.759,0c0,-0.808 0.655,-1.466 1.466,-1.466c0.807,0 1.465,0.658 1.465,1.466c0,0.807 -0.658,1.467 -1.465,1.467c-0.811,0 -1.466,-0.66 -1.466,-1.467Z"/>
    <path d="M74.03,32.789c0,1.778 1.449,3.223 3.226,3.223c1.777,0 3.226,-1.445 3.226,-3.223c0,-1.777 -1.449,-3.227 -3.226,-3.227c-1.777,0 -3.226,1.45 -3.226,3.227Zm1.758,0c0,-0.808 0.661,-1.466 1.468,-1.466c0.809,0 1.467,0.658 1.467,1.466c0,0.807 -0.658,1.467 -1.467,1.467c-0.807,0 -1.468,-0.66 -1.468,-1.467Z"/>
    <path d="M37.36,25.749c0,1.781 1.448,3.226 3.229,3.226c1.777,0 3.224,-1.445 3.224,-3.226c0,-1.777 -1.447,-3.225 -3.224,-3.225c-1.781,0 -3.229,1.448 -3.229,3.225Zm1.76,0c0,-0.806 0.658,-1.464 1.469,-1.464c0.807,0 1.466,0.658 1.466,1.464c0,0.812 -0.659,1.466 -1.466,1.466c-0.811,0 -1.469,-0.654 -1.469,-1.466Z"/>
    <path d="M52.026,39.825c0,1.781 1.446,3.224 3.225,3.224c1.78,0 3.225,-1.443 3.225,-3.224c0,-1.78 -1.445,-3.227 -3.225,-3.227c-1.779,0 -3.225,1.447 -3.225,3.227Zm1.759,0c0,-0.811 0.655,-1.465 1.466,-1.465c0.807,0 1.465,0.654 1.465,1.465c0,0.809 -0.658,1.469 -1.465,1.469c-0.811,0 -1.466,-0.66 -1.466,-1.469Z"/>
    <path d="M37.358,39.825c0,1.781 1.449,3.224 3.229,3.224c1.775,0 3.223,-1.443 3.223,-3.224c0,-1.78 -1.448,-3.227 -3.223,-3.227c-1.78,0 -3.229,1.447 -3.229,3.227Zm1.761,0c0,-0.811 0.656,-1.465 1.468,-1.465c0.806,0 1.463,0.654 1.463,1.465c0,0.809 -0.657,1.469 -1.463,1.469c-0.812,0 -1.468,-0.66 -1.468,-1.469Z"/>
    <path d="M44.693,18.116c0,1.779 1.445,3.224 3.224,3.224c1.78,0 3.229,-1.445 3.229,-3.224c0,-1.779 -1.449,-3.227 -3.229,-3.227c-1.779,0 -3.224,1.448 -3.224,3.227Zm1.757,0c0,-0.809 0.659,-1.467 1.467,-1.467c0.811,0 1.469,0.658 1.469,1.467c0,0.807 -0.658,1.465 -1.469,1.465c-0.808,0 -1.467,-0.658 -1.467,-1.465Z"/>
    <path d="M74.03,18.712c0,1.779 1.449,3.226 3.226,3.226c1.777,0 3.226,-1.447 3.226,-3.226c0,-1.778 -1.449,-3.227 -3.226,-3.227c-1.777,0 -3.226,1.449 -3.226,3.227Zm1.758,0c0,-0.808 0.661,-1.465 1.468,-1.465c0.809,0 1.467,0.657 1.467,1.465c0,0.806 -0.658,1.465 -1.467,1.465c-0.807,0 -1.468,-0.659 -1.468,-1.465Z"/>
    <path d="M59.386,25.749c0,1.781 1.446,3.226 3.226,3.226c1.779,0 3.224,-1.445 3.224,-3.226c0,-1.777 -1.445,-3.225 -3.224,-3.225c-1.78,0 -3.226,1.448 -3.226,3.225Zm1.759,0c0,-0.806 0.658,-1.464 1.467,-1.464c0.807,0 1.466,0.658 1.466,1.464c0,0.812 -0.659,1.466 -1.466,1.466c-0.809,0 -1.467,-0.654 -1.467,-1.466Z"/>
    <path d="M15.369,32.789c0,1.778 1.447,3.223 3.225,3.223c1.778,0 3.227,-1.445 3.227,-3.223c0,-1.777 -1.449,-3.227 -3.227,-3.227c-1.778,0 -3.225,1.45 -3.225,3.227Zm1.758,0c0,-0.808 0.66,-1.466 1.467,-1.466c0.809,0 1.467,0.658 1.467,1.466c0,0.807 -0.658,1.467 -1.467,1.467c-0.807,0 -1.467,-0.66 -1.467,-1.467Z"/>
    <path d="M30.025,32.789c0,1.778 1.449,3.223 3.228,3.223c1.776,0 3.223,-1.445 3.223,-3.223c0,-1.777 -1.447,-3.227 -3.223,-3.227c-1.779,0 -3.228,1.45 -3.228,3.227Zm1.758,0c0,-0.808 0.658,-1.466 1.47,-1.466c0.805,0 1.462,0.658 1.462,1.466c0,0.807 -0.657,1.467 -1.462,1.467c-0.812,0 -1.47,-0.66 -1.47,-1.467Z"/>
    <path d="M44.747,3.883c0,1.78 1.448,3.227 3.227,3.227c1.78,0 3.226,-1.447 3.226,-3.227c0,-1.779 -1.446,-3.225 -3.226,-3.225c-1.779,0 -3.227,1.446 -3.227,3.225Zm1.761,0c0,-0.81 0.655,-1.464 1.466,-1.464c0.809,0 1.467,0.654 1.467,1.464c0,0.81 -0.658,1.466 -1.467,1.466c-0.811,0 -1.466,-0.656 -1.466,-1.466Z"/>
    <path d="M0.707,32.789c0,1.778 1.447,3.223 3.227,3.223c1.777,0 3.225,-1.445 3.225,-3.223c0,-1.777 -1.448,-3.227 -3.225,-3.227c-1.78,0 -3.227,1.45 -3.227,3.227Zm1.76,0c0,-0.808 0.657,-1.466 1.467,-1.466c0.808,0 1.465,0.658 1.465,1.466c0,0.807 -0.657,1.467 -1.465,1.467c-0.81,0 -1.467,-0.66 -1.467,-1.467Z"/>
    <path d="M15.369,25.738c0,1.78 1.447,3.224 3.225,3.224c1.778,0 3.227,-1.444 3.227,-3.224c0,-1.779 -1.449,-3.223 -3.227,-3.223c-1.778,0 -3.225,1.444 -3.225,3.223Zm1.758,0c0,-0.809 0.66,-1.464 1.467,-1.464c0.809,0 1.467,0.655 1.467,1.464c0,0.808 -0.658,1.467 -1.467,1.467c-0.807,0 -1.467,-0.659 -1.467,-1.467Z"/>
    <path d="M66.699,32.789c0,1.778 1.444,3.223 3.224,3.223c1.779,0 3.226,-1.445 3.226,-3.223c0,-1.777 -1.447,-3.227 -3.226,-3.227c-1.78,0 -3.224,1.45 -3.224,3.227Zm1.76,0c0,-0.808 0.659,-1.466 1.464,-1.466c0.811,0 1.465,0.658 1.465,1.466c0,0.807 -0.654,1.467 -1.465,1.467c-0.805,0 -1.464,-0.66 -1.464,-1.467Z"/>
    <path d="M59.355,46.866c0,1.775 1.447,3.223 3.224,3.223c1.78,0 3.226,-1.448 3.226,-3.223c0,-1.779 -1.446,-3.231 -3.226,-3.231c-1.777,0 -3.224,1.452 -3.224,3.231Zm1.761,0c0,-0.811 0.656,-1.469 1.463,-1.469c0.809,0 1.466,0.658 1.466,1.469c0,0.806 -0.657,1.459 -1.466,1.459c-0.807,0 -1.463,-0.653 -1.463,-1.459Z"/>
    <path d="M44.693,25.749c0,1.781 1.445,3.226 3.224,3.226c1.78,0 3.229,-1.445 3.229,-3.226c0,-1.777 -1.449,-3.225 -3.229,-3.225c-1.779,0 -3.224,1.448 -3.224,3.225Zm1.757,0c0,-0.806 0.659,-1.464 1.467,-1.464c0.811,0 1.469,0.658 1.469,1.464c0,0.812 -0.658,1.466 -1.469,1.466c-0.808,0 -1.467,-0.654 -1.467,-1.466Z"/>
    <path d="M88.453,32.789c0,1.778 1.447,3.223 3.225,3.223c1.779,0 3.228,-1.445 3.228,-3.223c0,-1.777 -1.449,-3.227 -3.228,-3.227c-1.778,0 -3.225,1.45 -3.225,3.227Zm1.758,0c0,-0.808 0.661,-1.466 1.467,-1.466c0.809,0 1.465,0.658 1.465,1.466c0,0.807 -0.656,1.467 -1.465,1.467c-0.806,0 -1.467,-0.66 -1.467,-1.467Z"/>
    <path d="M12.237,59.079l3.465,0l1.127,4.649l0.021,0l1.131,-4.649l3.465,0l0,7.904l-2.304,0l0,-5.067l-0.022,0l-1.374,5.067l-1.813,0l-1.374,-5.067l-0.021,0l0,5.067l-2.301,0l0,-7.904Z"/>
    <rect x="22.94" y="59.079" width="2.434" height="7.904"/>
    <path d="M26.879,59.079l2.491,0l2.301,4.227l0.023,0l0,-4.227l2.302,0l0,7.904l-2.366,0l-2.427,-4.318l-0.02,0l0,4.318l-2.304,0l0,-7.904Z"/>
    <path d="M35.303,59.079l2.49,0l2.302,4.227l0.024,0l0,-4.227l2.298,0l0,7.904l-2.366,0l-2.425,-4.318l-0.02,0l0,4.318l-2.303,0l0,-7.904Z"/>
    <path d="M43.714,59.079l6.546,0l0,2.027l-4.109,0l0,0.983l3.731,0l0,1.883l-3.731,0l0,0.985l4.228,0l0,2.026l-6.665,0l0,-7.904Z"/>
    <path d="M53.559,64.326c0,0.199 0.033,0.378 0.087,0.519c0.178,0.475 0.71,0.576 1.164,0.576c0.398,0 1.006,-0.13 1.006,-0.717c0,-0.41 -0.345,-0.521 -1.704,-0.911c-1.253,-0.353 -2.678,-0.697 -2.678,-2.29c0,-1.826 1.561,-2.612 3.187,-2.612c1.715,0 3.231,0.653 3.298,2.581l-2.3,0c0.042,-0.3 -0.089,-0.5 -0.29,-0.633c-0.2,-0.143 -0.476,-0.201 -0.72,-0.201c-0.332,0 -0.872,0.091 -0.872,0.534c0.043,0.565 1.17,0.685 2.29,0.994c1.117,0.31 2.225,0.83 2.225,2.282c0,2.059 -1.895,2.723 -3.655,2.723c-0.897,0 -3.451,-0.321 -3.475,-2.845l2.437,0Z"/>
    <path d="M63.023,58.891c2.402,0 4.005,1.726 4.005,4.14c0,2.413 -1.603,4.14 -4.005,4.14c-2.403,0 -4.011,-1.727 -4.011,-4.14c0,-2.414 1.608,-4.14 4.011,-4.14Zm0,6.309c0.619,0 1.57,-0.409 1.57,-2.169c0,-1.76 -0.951,-2.169 -1.57,-2.169c-0.622,0 -1.574,0.409 -1.574,2.169c0,1.76 0.952,2.169 1.574,2.169Z"/>
    <path d="M69.373,61.106l-2.21,0l0,-2.027l6.862,0l0,2.027l-2.215,0l0,5.877l-2.437,0l0,-5.877Z"/>
    <path d="M76.39,59.079l2.382,0l2.878,7.904l-2.527,0l-0.331,-1.129l-2.512,0l-0.352,1.129l-2.447,0l2.909,-7.904Zm1.917,5.081l-0.708,-2.435l-0.025,0l-0.763,2.435l1.496,0Z"/>
    <path d="M6.315,71.729l4.072,0c2.148,0 2.9,1.572 2.9,2.701c0,1.916 -1.284,2.809 -3.098,2.809l-1.439,0l0,2.393l-2.435,0l0,-7.903Zm2.435,3.632l0.939,0c0.633,0 1.297,-0.045 1.297,-0.844c0,-0.717 -0.554,-0.762 -1.153,-0.762l-1.083,0l0,1.606Z"/>
    <path d="M21.301,76.576c0,2.192 -1.184,3.245 -3.598,3.245c-2.412,0 -3.607,-1.053 -3.607,-3.245l0,-4.847l2.435,0l0,4.308c0,0.805 0,1.812 1.184,1.812c1.151,0 1.151,-1.007 1.151,-1.812l0,-4.308l2.435,0l0,4.847Z"/>
    <path d="M22.451,71.729l4.328,0c2.08,0 2.524,1.172 2.524,1.981c0,0.799 -0.387,1.229 -0.975,1.55c0.71,0.245 1.375,0.809 1.375,1.973c0,1.579 -1.375,2.399 -2.769,2.399l-4.483,0l0,-7.903Zm2.436,3.075l1.284,0c0.508,0 0.829,-0.142 0.829,-0.652c0,-0.397 -0.33,-0.541 -0.829,-0.541l-1.284,0l0,1.193Zm0,2.946l1.426,0c0.511,0 0.954,-0.144 0.954,-0.752c0,-0.464 -0.278,-0.72 -0.853,-0.72l-1.527,0l0,1.472Z"/>
    <path d="M30.725,71.729l2.436,0l0,5.877l3.498,0l0,2.026l-5.934,0l0,-7.903Z"/>
    <rect x="37.499" y="71.729" width="2.436" height="7.903"/>
    <path d="M46.187,74.673c-0.044,-0.287 -0.264,-1.16 -1.272,-1.16c-1.138,0 -1.504,1.106 -1.504,2.168c0,1.06 0.366,2.168 1.504,2.168c0.821,0 1.14,-0.574 1.283,-1.315l2.393,0c0,1.591 -1.295,3.287 -3.608,3.287c-2.558,0 -4.008,-1.805 -4.008,-4.14c0,-2.489 1.57,-4.14 4.008,-4.14c2.169,0.012 3.364,1.151 3.575,3.132l-2.371,0Z"/>
    <path d="M52.515,71.729l4.639,0c1.383,0 2.578,0.763 2.578,2.258c0,0.817 -0.375,1.683 -1.186,1.98c0.665,0.256 1.074,0.986 1.164,1.971c0.034,0.387 0.045,1.331 0.265,1.694l-2.435,0c-0.122,-0.398 -0.166,-0.808 -0.199,-1.22c-0.065,-0.751 -0.133,-1.538 -1.095,-1.538l-1.294,0l0,2.758l-2.437,0l0,-7.903Zm2.437,3.453l1.274,0c0.45,0 1.071,-0.077 1.071,-0.785c0,-0.498 -0.276,-0.786 -1.207,-0.786l-1.138,0l0,1.571Z"/>
    <path d="M63.151,71.729l2.383,0l2.879,7.903l-2.528,0l-0.331,-1.128l-2.514,0l-0.351,1.128l-2.446,0l2.908,-7.903Zm1.918,5.08l-0.709,-2.435l-0.024,0l-0.761,2.435l1.494,0Z"/>
    <path d="M68.629,71.729l3.997,0c2.63,0 3.559,1.951 3.559,3.941c0,2.426 -1.284,3.962 -4.036,3.962l-3.52,0l0,-7.903Zm2.433,5.877l0.951,0c1.517,0 1.737,-1.227 1.737,-1.969c0,-0.499 -0.153,-1.882 -1.913,-1.882l-0.775,0l0,3.851Z"/>
    <rect x="77.032" y="71.729" width="2.437" height="7.903"/>
    <path d="M84.298,71.541c2.405,0 4.012,1.725 4.012,4.14c0,2.415 -1.607,4.14 -4.012,4.14c-2.401,0 -4.007,-1.725 -4.007,-4.14c0,-2.415 1.606,-4.14 4.007,-4.14Zm0,6.308c0.623,0 1.572,-0.412 1.572,-2.168c0,-1.76 -0.949,-2.168 -1.572,-2.168c-0.616,0 -1.569,0.408 -1.569,2.168c0,1.756 0.953,2.168 1.569,2.168Z"/>
    <path d="M90.999,73.335c0.328,0 0.653,-0.011 0.653,-0.381c0,-0.305 -0.252,-0.377 -0.516,-0.377l-0.496,0l0,0.758l0.359,0Zm-0.359,1.199l-0.266,0l0,-2.185l0.837,0c0.493,0 0.712,0.214 0.712,0.605c0,0.385 -0.255,0.559 -0.549,0.61l0.651,0.97l-0.317,0l-0.614,-0.97l-0.454,0l0,0.97Zm-1.179,-1.091c0,0.904 0.68,1.62 1.597,1.62c0.916,0 1.598,-0.716 1.598,-1.62c0,-0.905 -0.682,-1.623 -1.598,-1.623c-0.917,0 -1.597,0.718 -1.597,1.623Zm3.489,0c0,1.06 -0.824,1.889 -1.892,1.889c-1.067,0 -1.891,-0.829 -1.891,-1.889c0,-1.065 0.824,-1.892 1.891,-1.892c1.068,0 1.892,0.827 1.892,1.892Z"/>
  </g>
</svg>
