<svg xmlns="http://www.w3.org/2000/svg" viewBox="0 0 100 100"><title>North Carolina</title><path d="M47.42,33.33l43-.63v1l.63.55v.31l.54.47v-.78L93,38.73l-1.87-2.9.62,1.8L88.9,35.76l1.4,2-1.09.47L87.88,37l.7,1.64L86,37.17l1.72,1.56L84.83,39.9l-1.1-.54-.31-1.73.31-1.33-.63-.47L83,38.34l.78,1.56-.31.71,3.13-.55,1.72.71L88,40.22l2.43-.16v2.43h-.7l1,1.17-1.17.16,1.17.55.32-3.14.54-.46.71.54-.31-.7h.78l-.16-.55,1.25,1.88v2.43l-1.09.86-.47-.86-1.41,3.05-1.33.86-2.11-.71-.16.71-.63-1.49-.7.94L85,46.4l1.18-.55-1.88.24.55,1.64L80,46.09l1,1.33,5.17,1.88-2,1.4,1.18-.15.15.78L83.1,53.05l-3.28-2,1.41,2.19,2.19.94,1.25-1.1.94.71-.31-.71.86.16.39-1.33-.08,1.72,1.41-.55-.39-.62.94.78-2.43,3-1.17-1-.16,1.48-.55-1.17-1,.55.87.31H81.85l-2,.7-.47-1v1l-1.88,1.57-.78-.39.7-.71-1.17-1.33.55,1.41-.71.47.71,1.17L75,59.94l-2,1.88-2,5,.16-2.12-.63-1.17L70.9,66l-1,1.48-3.6-.78-2,1.17L52.58,55.71l-12-.54-.08-1.57L39,51.41,37.71,52V51L23.78,49.84,16,52.27,3,51.88l.55-3.21,2.35-.39.7-1.88L8,45.23l4.15-.4,3.6-2.34,1.88-.39,1.17-2,.86.47,1.8-1.8.79,1.33L26,37.63l1.57.71,1.88-2.58,1.88-.47L31.84,32ZM71.05,67l-.47,1L70,67.84l.24-.39Zm1.1-3.28-.39,1-.16.08.31-.94Zm5.08-4.47-1.87.87-1.18,1.09.63-.7,1.25-1Zm6.89-2.42H82.71l-2.89.7,2-.7,1.72-.16Zm1.72.7h-.23l-1-.7.86.23Zm.16.39,1.17-2.42,2-2.19-1.88,2.34Zm3.91-5,.55-1h.47l-1,.7Zm1.18-20.2h.54l.16.63h-.7l-.32-.63ZM92.18,51l-1.09.7.39-.55L93.67,50ZM93,35.6,93.9,38l2.2,4.38-2.2-3,.32-.07-1.41-3.53L92,32.7Zm2.11,6.34-.39-.16-.79-1.25.79.08Zm1,7.67-2,.55,2.35-1.49.23-3.44-.54-2.74L97,44.91l-.39,3.21Z"/></svg>