<svg xmlns="http://www.w3.org/2000/svg" viewBox="0 0 100 100"><title>unitedstates</title><path d="M88.8,44.41l-.08-.17-.09.08.09.17-.35.61-.17,1.37-.26.17v.52l-.08.26-.18-.26v-.69l.18-.26v-.34L88,45.7l-.17-.09.17-.08-.43.08.08-.43h-.34l.17-.26h-.17v-.34l-.09.34v-.17l-.17.35-.26-.35v.17l-.34-.34h.08l.18-.17h-.18l-.08-.09h.43l.09-.26-.09.18L86.48,44l-.09.26v-.43l.35.17-.18-.26.18-.09-.26-.17-.26.26v-.34h.34l.18-.26-.26.26-.26-.26.17-.43.52-.17h-.35l.18-.26h.17l-.09-.09V42l-.26.26.18-.26-.26.17v.17l-.26.26v-.26l-.09.35V42.6h-.25l.08.09-.08.17L86,43l-.17-.09.17.26h-.34l.26.08.08.18h-.17l.34.25h-.25l.08.09v.34l.52.86-.6-.17-.09-.43.09.26.08.26.52.26.26.43-.35-.18v.18l-.26-.18h-.34l-.17-.43v.43l-.35-.51-.25.34h-.18v-.43l.26-.34V44H85l.08.34-.34.17v.86H85l.25-.25.35.34h.6l.17.26.52.17V46L86.82,46l.09.6-.35-.09v.09l-.94-.86-.26-.09h-.09l.35.09.94.86.44.08-.18.09h.26v.43L86.82,47l.18.34h-.18l-.69-.51V47l.61.43H87l.25.43-.25.09-.44-.35-.17.09-.26-.26-.17.26-.17-.26-.43.17h.43l.09.09.51.08.09-.08.08.17.35.26v.17l.17-.09h.26l-.09-.25h.61l.34.77.43.6.6.86-.43-.26L88,48.45v.35l.08-.09.09.17-.26-.08.09.08.08.17.09.18V49l.43.86-.43-.52.17.26-.51-.26.25.35-.17.17-.26-.17.18.25-.52-.08.34.08-.43.26L87,50.09l-.09-.43-.09-.09.18.86.6-.26.26.17v-.17l.34-.08v.34l-.09.09.26.17-.26.08h.26v-.6h.26V50l.34.17V51l-.25-.18-.35.78-.43-.09v.09l-.08-.26-.18.26-.17-.26.17-.09-.34.09.17.26-1-.09.26.17,1,.18-.35.34.17-.09v.09l-.34.43-.6-.26.26.35h.51l.09-.26.26.17-.18-.17h.26v.17l.17-.17v-.09h.09v.35l-.26.34-.26-.08.18.25-.26-.25-.09.25h.09l-.69.18-.09-.09v.09l-.26.34h-.17l.09-.17-.26-.17.26.17-.09.17.09.09-.26.25-.34.43-.18,1V54.9l-.08-.08v.69h-.78l-.6.51-.6.86v.52l-.17-.17.08-.35-.08.26v.26l.17.09-.09.25-.08-.08.08.08-.08.09v.09L83,58l.08.26-.51.52-.17-.26v.26l.17.08-.17.17-.35.26-.17-.17.09.17-.09.17-.52-.08-.17.08h.26l-.17.18h.34l-.26.25.26-.17v.17l-.34.18-.09-.43V60h-.09L81,59.64l-.17-.18L81,60l.35.17-.18.35v-.35l-.25.43.25.17-.25.09v.26h-.35v.08h.26l-.17.18h-.35l.09.17v.08h.26v.26l-.26-.26.17.09-.26.17.09.26.26-.26-.26.43-.09-.08.09.17h-.26l.43.09-.26.34-.08-.09-.09.26h.17v.09L80.11,63l.17.26-.17.09h.17l-.08.17.08.34h.09v.35l-.09-.09v.09l.26.25L81,65.66l1,1.63.77.95.34.34L83,69.1l.43.86L83,69.19l-.17-.86h-.35V68h-.17l.26,1,1,1.37.09.35.51.69v-.09H84l.35.09.34.86.17,2.32v-.34l-.17.6v1h-.43l-.26.26h-.34l-.43.17L83,76.07V75.9l.08-.09.09.09h.26l-.09.17.17-.17L83,75.72l-.6-.94-.52-.17-.26.08.09-.17-.35-.09-.17-.86-.34-.08.34-.6-.43.6-.26-.95.26-.17-.43.17-.26-.08.26.34h-.26l-.69-1.12-.34-.09v-.17l.09.17v-.25l.08.08-.08-.08h.08l.43-.69-.17-.17-.26.17v-.17L79,70.22l.09.08-.17.18.26.08-.09.52-.34-.26.25.09v.25l-.25-.34.17-1.46-.17-1-.43-.52h-.43l-.95-.69v-.34l-.26-.09-.34-.34L75.64,66h-.43l-.43.35.17.08-.26-.08.35.08v.17h-.35l-.6.52v-.26l-.26.26-.69.17-.08-.08L73,67l.17.34-.08-.43-.69-.51.43.25.17-.17-.17.17-.09-.25-.17.08-.26-.26.18-.17v-.17l-.18.26L72.2,66l-.26.09.34.34-.86-.34L70.56,66l.6-.17h.18l-.18-.17-.34.08-.26-.08-.08.34h-.35l-.77.17L70,66l-.34-.17.08-.09-.08-.08-.18.34-.25-.26.17.26-.35.35-.34.08.34-.34L68.84,66v.35H68.5l.08.25H68.5l-.78.18.52-.18L68,66.17H67.9l-.09-.34-.26-.26-.08,1L67,66.35l-.17.25-.18-.17-.34.17-.43-.17H66l-.69.35-.17-.09-.26.43-.25.09-1.21-.43-.43.43.09.26.43.08.34-.08.26-.26.26.08v0l.17-.08-.09.26-.25.08.34.35.34-.61h.26l-.17.26h.17l-.17.17.26.09V68h-.09l-.26-.08-.25.17.34.26-.43-.09.09.09-.18.08.43.43v.09h.35l.34.08v-.08l.17.26.26.17h0l-.26.34-.17-.26-.34.52.26-.6-.18.17-.17-.34h-.43V69l-.34.09.08-.09-.08-.17h-.26l-.52-.26-.08.26.51.09v.26l-.43.51-.08-.34-.17-.17-.09.25-.17-.34v.26h-.17l-.18.34-.25.09-.18-.26v.17l-.94-.26.17-.25.26.34.08-.09L61.53,69v-.34l-.17.34-.26-.17-.26.09-.17-.52-.43.17v-.25l-.69.08.09.26.08-.09v.26H60l-.6.17-.78-.08-1.12-.35-1.2.26-.09-.26h.18l.17-.34h-.26l-.26.34.26.35h-.52l-1.29.77.09-.26.52-.08v-.17l-.61.17.09-.43-.09-.09L54.3,69,54,68.93l.08.17v.26l.26.08-.17.09.26.17-.6.43H53.7l.09.35-.86.68-.69.18v.08l.43-.17-1,.52.43-.35-.43.17.17-.17h-.17l.09-.08-.35.08-.17-.17H51.2l.09.17-.09.17-.08.09.08-.26-.43-.08.18.34.17.09-.09.17h.26l-.52.34-.17-.34V72h-.17l.17.44-.26.08-.17.17.17-.34-.17.34-.08-.25-.26.08-.17.26.25.26.18-.26-.26.6-.78-.08.26.08v.09l.35.17-.35.86-.26.09.18-.09v-.09l-.35.18-.17-.35.17.35-.17.08h.6l-.08.6h-.18l.18.35-.18-.09v.09l.18.08.25.69h-.17l.26.35.09.51.25.09-.08.17.17-.17v.26l-.43.17V78l-.69-.43-1.12-.17L47.33,77h-.51l-.26-.25-.6-.09-.35-1-.43-.6L45.1,74l-.69-.43L44,72.71l-.52-.25-.08-.52-.52-1-.09-.35-.69-.86-.34-.17-.09-.17-.17.08L41.22,69l-1.29-.08-.43-.26-.08.34h-.69l-.34.95v.26l-.26.08-.35.35-.43-.09-.77-.51L36.06,70l-.94-.86-.35-.69.17-.51-.6-1-.77-.51-1.12-1.29L32,64.71l-.35-.6-3.44-.26-.17,1-5.51-.43-7-3.61.34-.43-4.64-.26L11,59.89l.25.09v-.09L11,59.72V59l-.26-.69-1-1.12-.43-.08-.18-.69H8.62L8,56l-.17-.43-.51-.43-1.64-.34-.34-.35.26-1.29-.35-.25.09-.52-.69-.6L4.49,51,4,50.17l-.17-.6.34-.17L4.23,49l-.09-.26-.34-.17-.34-.35-.26-1,.17-.52h.17v.43l.52.52h.08L4,46.73l-.17-.09v-.17l-.09-.17.09-.09L4.06,46l.08.17.78.26.26-.26.17.35-.17-.35-.35.09L5.09,46l-.52.17L4.49,46l-.35.25-.34-.34H3.54v.6l-.08.09-.61-.86L2.59,46l.26-.52L3,45.7l-.34-.78-.86-1.29.09-.43v-.6L2,42l-.08-.86-.61-.69V40l.43-.52.09.09.26-.34-.26.08.26-.43v-.26l.34-.77v-.52l-.17-.26.17-.43-.17-.25V35.8l.17-.68-.17-.43.6-1,.09.09.17-.17.09.08V33.4l-.26.17.26-.43.26-.09H3.37l.34-1.38L4,31.42l-.17-.09.26-.26v-.51l.51-1.47v.09h.09l-.09-.26.26-.17H4.66l-.09-.17.35-.6-.09-.35.35.17-.09-.08h.6L6,28H6l-.26-.35-.34-.09-.69-.08.26-.86.17.69V27.2h.09v-.52h.25l-.51-.17v-.43l.26.26-.09-.17.34-.09-.34-.34-.17.17V24.36l-.35-.77.09-.86,1.12.77,1.12.35.25-.18.18.43.08-.17.09.26v-.26h.17l-.09.17.26.35-.43.34v-.08l-.69.68.09.09.52-.09H6.81L7.15,25H7.5l.34-.34v-.26l.09.43H7.84L7.67,25v.26l-.09-.17-.08.26.34-.09v.09l-.26.51-.17-.08.17-.17v-.09l-.25.43v-.43l-.61.43h.35l-.26.17.09-.17.17.26.08-.26.18.26.25-.26.09-.17.17.08L8,25.74v-1l.52-.35-.26-.51-.08.08.08.35-.08-.18v-.25h.08l.17-.18-.25-.34-.26-.09L8,23.16l.26.17-.08-.26h.25v-.34H8l-.08-.52L8,22.12l9.55,1.73,9.73,1.2,6.28.43,5.93.26,6,.08,6-.25.17.25.43-.25.43.25.09.35,1.29.17.08.17.86-.17.86.09v.17h.43l.18.43.17-.17.26-.18.94.61h.43l.61-.43.17.34,1-.26.26.35.26-.09h.34L59,28.15l-2,1.89.26.26.86-.26L59,29.7l.09.08-.17.6.17-.08v-.09l.6.17,1-.6.78-.26.6-.34.35-.52.17.18.34.34v.52l.43-.52-.17.34.17-.25H64l.35.17.34.51.78-.08.17.17.08-.09L66,30l.78-.6,1-.17.86-.35-.09.6.43.18.18-.18.17.18.43-.26.34.51H70l.34.09.26.34-.86.18h-.08l-.26-.18-.17.52-.35-.26-.94-.08-.09.34-.43.09h-.6l-.52.94-.17-.17.26-.6-.52.17-.17.43-.09-.6-.08.6-.78,1.29v.26l-.26.26-.25.6v.17l.17.09.34-.69.43-.17.17.17-.17,1.12.09.26-.35.68.09.43-.34,1,.08.51.43.43V39.5l.52,1,.6.43.34-.26.61-.51.51-1.38V37.61l-.25-.6v-.09l-.09.09-.52-.78L67,35.8l-.09-.51.35-.86-.09-.69.26-.09v-.43l.17-.08h.26l.26-.61-.09.78.09.09.26-.35v.35l.17-.52v-.6l.6-.35-.26-.17.17-.6-.08-.09.26-.08.51.17h.43l.35.34,1.2.43.26.35h-.26v.17l.34.43v1l-.17.26-.17.34-.34.26-.09.6.43.18.34-.18.26-.51-.08-.09.6-.34h.26l.43.43.6,1.8v1l-.26.09v-.35h-.17l-.17.18V38l-.35.35-.08.43.08.17-.43.77.86.17.26-.08.35.08-.69.18h.77L74.18,40l.43.09.68-.26.43-.09.69-.6,1.55-1,1.21-1,1-1.11L80,35.46l-.26-.09L79.68,35l1.55-.6.86.08,1.12-.17.69-.77.34-.17.09-.26L84,32.79l.35-.34h-.17v-.17l-.26.17-.17-.26.77-.69.17-.51.6-.78.43-.43,5.6-1.37L91.21,28l.17-.26h.17l.26-.18.26.09v-.34l.35-.09L92.16,27l.17-.17.26-.43.08-.52-.17-.52.17-.6-.08-.6.86-2h.26l.08.34.26.18.77-.69h.26l.78.34.94,2.93h.61l.17.77.34.09.17-.09.35.35-.26.17.09.26.17-.26.08.08-.08-.08.26.08-.26.52-.17.09L98.09,27v.43L98,27.29v.17h-.09v.17h-.26v.09l-.08-.18v.18l-.17-.09v.43l-.09-.26v.26l-.17-.26v.52L96.89,28v.08L96.63,28l.17.08-.17.26-.17-.26.08.26h-.25l.25.43-.6-.09.09-.25-.09.17v-.43h-.08v.17l-.18.26.09.08-.09,1-.17.08v-.26l-.17.18v-.26l-.26.6-.17-.34.17.34L94.82,30V29.7l-.08.25.08.35-.17-.6-.08.17.08.08.09.43L94.57,30l-.18.34-.08-.17-.35.6.26.09L94,31l.09.17-.34.51v.52l-.09-.09-.09.78.26.26.17.08.09-.17v.09l-.43.26.09.25h-.09v.26l-.09.09.18.17.08-.17h-.08l.34.17.34.26-.08-.09v.17h.34l.09.35h.43l-.09.17.09-.17.34-.17v-.26h-.08l-.09-.17h-.43l.43-.09.34.34.09.35-.86.43-.26.26v-.43h-.26l-.08.34h-.09v.17L94,35.8v-.17l-.25.26-.09-.34.09-.26-.09.08h-.09v0l-.25-.08v.94l-1,.35-.26.17-.26-.09.18.09-.26.17L91,37l-.26.34-.86.69-.08.43-.26.17-.17.18.17-.78-.17-.34-.17-.17.34.68-.17.61-.17.17-.09.34.52.17v-.25l.17.51.08,1.12h-.08v.17l-.26.43h-.17v.26h-.09v.09l.09.17-.26.17h.17L89,43l-.25.17v-.6l-.52.08-.86-.52-.09-.25.26-.43.43-.35.09-.34-.17.34-.35.17-.26.61L88,43.29l.6.17v.26l-.17-.09.17.18-.17.17.26-.17ZM5.09,27.2v0Zm.69,28.48v.08l-.17-.08h.17Zm.51.26.09.08L6,56.11,6,55.76Zm.43,0h.43l.18.08-.61.09-.25-.35Zm.18,1.8.17.09.08.09-.34-.18Zm.25-31.83-.08-.17h.08Zm.35-2.84v.09l-.17-.09v-.26Zm-.09,3H7.33l.08-.17Zm.17-4h0Zm.26.69.09.08L7.84,23l-.17-.26V23l-.17-.18.17-.26Zm-.17.43v.08l-.09-.08L7.67,23Zm.34.17.18.34H7.84l.17.18-.08.43L8,24.1l.26.18-.08.17-.26-.17v-.35l-.26-.26Zm-.17.86H7.67V24.1Zm0,1H7.67l.17-.43.09.17Zm.09.35-.26.17.17-.35h.09Zm0-2.5V23l.08.08ZM8.19,23,8,22.73l.18.08ZM9,59.12,8.7,59l-.08-.43H8.7Zm.17-1.29.18.17H9v-.26l-.26-.08Zm40.7,16-.17.35-.18.6.18-1h.17l.26-.43Zm.08,3.44-.43-1.55v-.34Zm.18-4,.25-.52.09-.09v.09Zm1.2-1.12-.52.34-.34.26.17-.26.69-.52Zm.17-.18.09-.08.17-.17Zm.35-47.23.34.17v.26l-.26.09Zm2.66,45h.09l-.77.51.6-.51ZM58.86,29.7v-.18H59Zm.43,0h-.17v-.18Zm0,.25-.17.09.26-.26.17.09Zm.26-.25h-.26l.26-.18Zm.17-.26h-.08l.08-.17Zm.69,39.66h-.17L60,68.93l.17-.26.35.26Zm2.07-42.5-.09.34-.52.35H62l-.43.17.08-.26ZM62.22,70h0Zm.51-.17V70h-.25ZM64,28.06l-.51.09.08.17-.34.34-.26.52-.08-.26H63v-.17l-.08.09h-.26v-.18l.43-.51.77-.17Zm-.94,41.38v-.08h.17Zm.17.35h0Zm.26,0h0Zm.26-1H64v.09Zm.25.52.09-.17v.17Zm.18-.17h0ZM65,68l.17.09h-.26Zm.69-35.36.08.17h-.08v.26l-.35.69-.17-.34Zm-.17,34.59v.26l-.35-.18.35-.17Zm-.26.51.08-.17Zm0,.18h.08V68Zm.08-.18.18-.17v.17Zm.35-.86V67l-.17-.09Zm-.09,1.81.09-.09v.09Zm.17-36.39h.09v.25h-.09Zm0,36.3.09-.17ZM66,30h-.17v-.17Zm-.17,36.91v0Zm.26,1.21H66l.09-.09Zm.17-.26v.09l-.17-.69.17.26Zm.43-1-.43-.08h.09Zm.17-.08-.08.08v-.08Zm.69-.09-.43.09Zm-.34-33.55v-.09h.17Zm.26-.26h-.09v-.26l.09.17Zm.25-.78-.17.09V32.1Zm.26-.43H67.9l.08-.34h.09Zm.09-.51H68v-.09ZM70.48,66l-1.29.35H69.1L70.22,66h.26ZM70,31l-.17.08L69.62,31l.17-.09Zm.17-1.21-.34-.34.17-.17h.17Zm-.34.78.17.08Zm.34-.69h-.08v-.09Zm1.12.43-.09.26-.43-.18.18-.17V30Zm1.89,8.52v0Zm.43,28.39v.08l-.17-.08h.17Zm.26.08-.17.18-.09-.18.86-.34Zm.69-.43h-.09l.18-.08Zm4.13,1.81v-.09h.09Zm0,0h0Zm.6,2.67h0Zm.17.43-.25-.18ZM80,35.46v.17l-.18-.08-.08-.09Zm.25,28.31-.08-.26.08-.26v.52Zm-.08,9.29v0Zm.08.26v0Zm.35.17-.26-.35h.17Zm0,.08h-.09l-.17-.08Zm.69,4.31v0Zm.43-3.19v.09l-.09-.09Zm.26,0v0Zm.08,3.1-.08.09v-.09Zm.17-3.1v.09h-.17v-.09Zm.09,2.93v.17h-.26l.17-.17Zm.09-2.84h-.18v-.09Zm0,2.58.08.17-.17.09.09-.09h.08Zm.6-5.77-.52.61.52.34h.34l.09-.6-.09-.26Zm-.43,5.77h0Zm.26-9-.09.34.09.43-.26-.52Zm0,9v.17l-.26-.34.17.08ZM83,69.19l-.17-.09Zm0,8.08h0Zm0,.09.08-.09Zm.17-1.46v0Zm.26,1.29h-.09l.09-.18Zm0-19.27v0Zm.86,13.33L84,70.82,83.47,70l.17.26ZM83.64,77l-.09.18.09-.26Zm.26-.17h0Zm.26-45.08-.18.17v-.17Zm-.18.69v0Zm.35-1v.17l-.09.09-.08-.09Zm-.17,45.26v0Zm.08-.09v0Zm.43-.77-.34.6.34-.78v-.08l.17-.09Zm.17-1.21v0Zm0,.6v0Zm.86-19.87v.17h-.08v-.08Zm.09-.6v0Zm.69-1-.26.25-.09.26v-.17l.26-.26Zm1.2-.61-.34.09-.43.17.34-.17.35-.09Zm-.43-8h-.17V45.1Zm.09.35-.09.08v-.08Zm.6,7.74-.26-.09ZM88,47.16h-.09L88,47Zm0,6.11.08-.34.35-.52-.35.52Zm.08-6.54v0Zm.52-1.2-.17.08.34-1.12Zm-.17,6.79.17-.17h.09l-.09.09Zm.51-.43-.25.26v-.26l.43-.26Zm.09-1.72L88.8,50H89Zm.26-11.27V39l-.17.34V39Zm.17,12.65-.34.08.34-.34-.26-.95.26.35.09.51Zm2.67-14.46-.61.69L92,37.7l.08-.35h.35v-.08l.08.08.35-.34-1.38,1.12.26-.09-1.81.86.26-.08-.43.17.08-.17-.34.17-.17-.09.17-.26.34-.17v-.26l.09.18v-.26l1.63-.52Zm-2.67,4.74h-.17l.26-.26Zm.09-.43v.08l.17-.51v.17Zm1.11-2.76-.25.09-.18.09.35-.18Zm.26,0-.26.09v-.09l.78-.51Zm1.55-2,.09-.08ZM93.19,35v0Zm0,.09h0Zm.09,1.63h-.09l.09-.17v.17Zm0-1.63v0Zm0,.17.17.08Zm.25.08h0Zm-.08.61V35.8l.08.09Zm.17-.09-.09.09.09-.43v.34Zm.17-.09v0Zm.95-.17.17.17-.34.18h-.18Zm.34.17h-.17l.17-.17Zm.69-.25.17.25-.43.09.26-.09Zm0-.26v0Zm.43-6H96l-.09-.18.26.09Zm.26-.52v.09l-.26.08v-.17Zm.52-.34h-.09v.25l-.26-.08.17-.43Z"/></svg>